<mxfile host="Electron" agent="Mozilla/5.0 (Windows NT 10.0; Win64; x64) AppleWebKit/537.36 (KHTML, like Gecko) draw.io/26.0.9 Chrome/128.0.6613.186 Electron/32.2.5 Safari/537.36" version="26.0.9" pages="6">
  <diagram name="CDN" id="Wh4pv0JTKAftWyQfJWub">
    <mxGraphModel dx="987" dy="585" grid="1" gridSize="10" guides="1" tooltips="1" connect="1" arrows="1" fold="1" page="1" pageScale="1" pageWidth="1169" pageHeight="827" math="0" shadow="0">
      <root>
        <mxCell id="M_vpcquvCH6vw9jncuj6-0" />
        <mxCell id="M_vpcquvCH6vw9jncuj6-1" parent="M_vpcquvCH6vw9jncuj6-0" />
        <mxCell id="M_vpcquvCH6vw9jncuj6-2" value="MongoDB&lt;div&gt;&lt;font style=&quot;font-size: 8px;&quot;&gt;mongos_router&lt;/font&gt;&lt;/div&gt;" style="shape=cylinder3;whiteSpace=wrap;html=1;boundedLbl=1;backgroundOutline=1;size=15;" vertex="1" parent="M_vpcquvCH6vw9jncuj6-1">
          <mxGeometry x="780" y="280" width="60" height="80" as="geometry" />
        </mxCell>
        <mxCell id="M_vpcquvCH6vw9jncuj6-3" value="pymongo-api" style="rounded=1;whiteSpace=wrap;html=1;" vertex="1" parent="M_vpcquvCH6vw9jncuj6-1">
          <mxGeometry x="580" y="290" width="120" height="60" as="geometry" />
        </mxCell>
        <mxCell id="M_vpcquvCH6vw9jncuj6-4" style="edgeStyle=orthogonalEdgeStyle;rounded=0;orthogonalLoop=1;jettySize=auto;html=1;exitX=1;exitY=0.5;exitDx=0;exitDy=0;entryX=0;entryY=0.5;entryDx=0;entryDy=0;entryPerimeter=0;" edge="1" parent="M_vpcquvCH6vw9jncuj6-1" source="M_vpcquvCH6vw9jncuj6-3" target="M_vpcquvCH6vw9jncuj6-2">
          <mxGeometry relative="1" as="geometry" />
        </mxCell>
        <mxCell id="M_vpcquvCH6vw9jncuj6-5" value="MongoDB&lt;div&gt;shard2-1&lt;/div&gt;" style="shape=cylinder3;whiteSpace=wrap;html=1;boundedLbl=1;backgroundOutline=1;size=15;" vertex="1" parent="M_vpcquvCH6vw9jncuj6-1">
          <mxGeometry x="900" y="400" width="60" height="80" as="geometry" />
        </mxCell>
        <mxCell id="M_vpcquvCH6vw9jncuj6-6" value="MongoDB&lt;div&gt;shard1-1&lt;/div&gt;" style="shape=cylinder3;whiteSpace=wrap;html=1;boundedLbl=1;backgroundOutline=1;size=15;" vertex="1" parent="M_vpcquvCH6vw9jncuj6-1">
          <mxGeometry x="900" y="160" width="60" height="80" as="geometry" />
        </mxCell>
        <mxCell id="M_vpcquvCH6vw9jncuj6-7" value="MongoDB&lt;div&gt;configSrv1&lt;/div&gt;" style="shape=cylinder3;whiteSpace=wrap;html=1;boundedLbl=1;backgroundOutline=1;size=15;" vertex="1" parent="M_vpcquvCH6vw9jncuj6-1">
          <mxGeometry x="780" y="160" width="60" height="80" as="geometry" />
        </mxCell>
        <mxCell id="M_vpcquvCH6vw9jncuj6-8" style="edgeStyle=orthogonalEdgeStyle;rounded=0;orthogonalLoop=1;jettySize=auto;html=1;exitX=1;exitY=0.5;exitDx=0;exitDy=0;entryX=0;entryY=0;entryDx=0;entryDy=52.5;entryPerimeter=0;exitPerimeter=0;" edge="1" parent="M_vpcquvCH6vw9jncuj6-1" source="M_vpcquvCH6vw9jncuj6-2" target="M_vpcquvCH6vw9jncuj6-5">
          <mxGeometry relative="1" as="geometry">
            <mxPoint x="830" y="334" as="sourcePoint" />
            <mxPoint x="910" y="334" as="targetPoint" />
          </mxGeometry>
        </mxCell>
        <mxCell id="M_vpcquvCH6vw9jncuj6-9" style="edgeStyle=orthogonalEdgeStyle;rounded=0;orthogonalLoop=1;jettySize=auto;html=1;exitX=1;exitY=0.5;exitDx=0;exitDy=0;entryX=0;entryY=0.5;entryDx=0;entryDy=0;entryPerimeter=0;exitPerimeter=0;" edge="1" parent="M_vpcquvCH6vw9jncuj6-1" target="M_vpcquvCH6vw9jncuj6-6">
          <mxGeometry relative="1" as="geometry">
            <mxPoint x="840" y="320" as="sourcePoint" />
            <mxPoint x="890" y="387" as="targetPoint" />
          </mxGeometry>
        </mxCell>
        <mxCell id="M_vpcquvCH6vw9jncuj6-10" style="edgeStyle=orthogonalEdgeStyle;rounded=0;orthogonalLoop=1;jettySize=auto;html=1;exitX=0.5;exitY=0;exitDx=0;exitDy=0;entryX=0.5;entryY=1;entryDx=0;entryDy=0;entryPerimeter=0;exitPerimeter=0;" edge="1" parent="M_vpcquvCH6vw9jncuj6-1" source="M_vpcquvCH6vw9jncuj6-2" target="M_vpcquvCH6vw9jncuj6-7">
          <mxGeometry relative="1" as="geometry">
            <mxPoint x="820" y="283" as="sourcePoint" />
            <mxPoint x="870" y="350" as="targetPoint" />
          </mxGeometry>
        </mxCell>
        <mxCell id="M_vpcquvCH6vw9jncuj6-11" value="MongoDB&lt;div&gt;shard1-2&lt;/div&gt;" style="shape=cylinder3;whiteSpace=wrap;html=1;boundedLbl=1;backgroundOutline=1;size=15;" vertex="1" parent="M_vpcquvCH6vw9jncuj6-1">
          <mxGeometry x="980" y="100" width="60" height="80" as="geometry" />
        </mxCell>
        <mxCell id="M_vpcquvCH6vw9jncuj6-12" value="MongoDB&lt;div&gt;shard1-3&lt;/div&gt;" style="shape=cylinder3;whiteSpace=wrap;html=1;boundedLbl=1;backgroundOutline=1;size=15;" vertex="1" parent="M_vpcquvCH6vw9jncuj6-1">
          <mxGeometry x="980" y="210" width="60" height="80" as="geometry" />
        </mxCell>
        <mxCell id="M_vpcquvCH6vw9jncuj6-13" value="MongoDB&lt;div&gt;shard2-2&lt;/div&gt;" style="shape=cylinder3;whiteSpace=wrap;html=1;boundedLbl=1;backgroundOutline=1;size=15;" vertex="1" parent="M_vpcquvCH6vw9jncuj6-1">
          <mxGeometry x="980" y="334" width="60" height="80" as="geometry" />
        </mxCell>
        <mxCell id="M_vpcquvCH6vw9jncuj6-14" value="MongoDB&lt;div&gt;shard2-3&lt;/div&gt;" style="shape=cylinder3;whiteSpace=wrap;html=1;boundedLbl=1;backgroundOutline=1;size=15;" vertex="1" parent="M_vpcquvCH6vw9jncuj6-1">
          <mxGeometry x="980" y="470" width="60" height="80" as="geometry" />
        </mxCell>
        <mxCell id="M_vpcquvCH6vw9jncuj6-15" value="MongoDB&lt;div&gt;configSrv2&lt;/div&gt;" style="shape=cylinder3;whiteSpace=wrap;html=1;boundedLbl=1;backgroundOutline=1;size=15;" vertex="1" parent="M_vpcquvCH6vw9jncuj6-1">
          <mxGeometry x="720" y="60" width="60" height="80" as="geometry" />
        </mxCell>
        <mxCell id="M_vpcquvCH6vw9jncuj6-16" value="MongoDB&lt;div&gt;configSrv3&lt;/div&gt;" style="shape=cylinder3;whiteSpace=wrap;html=1;boundedLbl=1;backgroundOutline=1;size=15;" vertex="1" parent="M_vpcquvCH6vw9jncuj6-1">
          <mxGeometry x="840" y="60" width="60" height="80" as="geometry" />
        </mxCell>
        <mxCell id="M_vpcquvCH6vw9jncuj6-17" value="" style="endArrow=classic;startArrow=classic;html=1;rounded=0;exitX=0.855;exitY=0;exitDx=0;exitDy=4.35;exitPerimeter=0;" edge="1" parent="M_vpcquvCH6vw9jncuj6-1" source="M_vpcquvCH6vw9jncuj6-7">
          <mxGeometry width="50" height="50" relative="1" as="geometry">
            <mxPoint x="820" y="190" as="sourcePoint" />
            <mxPoint x="870" y="140" as="targetPoint" />
          </mxGeometry>
        </mxCell>
        <mxCell id="M_vpcquvCH6vw9jncuj6-18" value="" style="endArrow=classic;startArrow=classic;html=1;rounded=0;exitX=0.145;exitY=0;exitDx=0;exitDy=4.35;exitPerimeter=0;" edge="1" parent="M_vpcquvCH6vw9jncuj6-1" source="M_vpcquvCH6vw9jncuj6-7">
          <mxGeometry width="50" height="50" relative="1" as="geometry">
            <mxPoint x="700" y="190" as="sourcePoint" />
            <mxPoint x="750" y="140" as="targetPoint" />
          </mxGeometry>
        </mxCell>
        <mxCell id="M_vpcquvCH6vw9jncuj6-19" value="" style="endArrow=classic;startArrow=classic;html=1;rounded=0;exitX=1;exitY=0;exitDx=0;exitDy=27.5;exitPerimeter=0;entryX=0;entryY=0.875;entryDx=0;entryDy=0;entryPerimeter=0;" edge="1" parent="M_vpcquvCH6vw9jncuj6-1" source="M_vpcquvCH6vw9jncuj6-6" target="M_vpcquvCH6vw9jncuj6-11">
          <mxGeometry width="50" height="50" relative="1" as="geometry">
            <mxPoint x="960" y="210" as="sourcePoint" />
            <mxPoint x="1010" y="160" as="targetPoint" />
          </mxGeometry>
        </mxCell>
        <mxCell id="M_vpcquvCH6vw9jncuj6-20" value="" style="endArrow=classic;startArrow=classic;html=1;rounded=0;exitX=0;exitY=0;exitDx=0;exitDy=27.5;exitPerimeter=0;" edge="1" parent="M_vpcquvCH6vw9jncuj6-1" source="M_vpcquvCH6vw9jncuj6-12">
          <mxGeometry width="50" height="50" relative="1" as="geometry">
            <mxPoint x="910" y="270" as="sourcePoint" />
            <mxPoint x="960" y="220" as="targetPoint" />
          </mxGeometry>
        </mxCell>
        <mxCell id="M_vpcquvCH6vw9jncuj6-21" value="" style="endArrow=classic;startArrow=classic;html=1;rounded=0;exitX=1;exitY=0;exitDx=0;exitDy=27.5;exitPerimeter=0;" edge="1" parent="M_vpcquvCH6vw9jncuj6-1" source="M_vpcquvCH6vw9jncuj6-5">
          <mxGeometry width="50" height="50" relative="1" as="geometry">
            <mxPoint x="930" y="450" as="sourcePoint" />
            <mxPoint x="980" y="400" as="targetPoint" />
          </mxGeometry>
        </mxCell>
        <mxCell id="M_vpcquvCH6vw9jncuj6-22" value="" style="endArrow=classic;startArrow=classic;html=1;rounded=0;exitX=0.006;exitY=0.102;exitDx=0;exitDy=0;exitPerimeter=0;entryX=1;entryY=1;entryDx=0;entryDy=-15;entryPerimeter=0;" edge="1" parent="M_vpcquvCH6vw9jncuj6-1" source="M_vpcquvCH6vw9jncuj6-14" target="M_vpcquvCH6vw9jncuj6-5">
          <mxGeometry width="50" height="50" relative="1" as="geometry">
            <mxPoint x="760" y="360" as="sourcePoint" />
            <mxPoint x="810" y="310" as="targetPoint" />
          </mxGeometry>
        </mxCell>
        <mxCell id="M_vpcquvCH6vw9jncuj6-23" value="redis" style="shape=cylinder3;whiteSpace=wrap;html=1;boundedLbl=1;backgroundOutline=1;size=15;" vertex="1" parent="M_vpcquvCH6vw9jncuj6-1">
          <mxGeometry x="780" y="530" width="60" height="80" as="geometry" />
        </mxCell>
        <mxCell id="M_vpcquvCH6vw9jncuj6-24" value="" style="endArrow=classic;html=1;rounded=0;entryX=0.5;entryY=0;entryDx=0;entryDy=0;entryPerimeter=0;exitX=0.5;exitY=1;exitDx=0;exitDy=0;exitPerimeter=0;" edge="1" parent="M_vpcquvCH6vw9jncuj6-1" source="M_vpcquvCH6vw9jncuj6-2" target="M_vpcquvCH6vw9jncuj6-23">
          <mxGeometry width="50" height="50" relative="1" as="geometry">
            <mxPoint x="730" y="350" as="sourcePoint" />
            <mxPoint x="780" y="300" as="targetPoint" />
          </mxGeometry>
        </mxCell>
        <mxCell id="M_vpcquvCH6vw9jncuj6-25" value="API Gateway&lt;div&gt;apisix&lt;/div&gt;" style="rounded=1;whiteSpace=wrap;html=1;" vertex="1" parent="M_vpcquvCH6vw9jncuj6-1">
          <mxGeometry x="350" y="300" width="120" height="60" as="geometry" />
        </mxCell>
        <mxCell id="M_vpcquvCH6vw9jncuj6-26" value="Consul" style="rounded=1;whiteSpace=wrap;html=1;" vertex="1" parent="M_vpcquvCH6vw9jncuj6-1">
          <mxGeometry x="350" y="414" width="120" height="60" as="geometry" />
        </mxCell>
        <mxCell id="M_vpcquvCH6vw9jncuj6-27" value="etcd" style="shape=cylinder3;whiteSpace=wrap;html=1;boundedLbl=1;backgroundOutline=1;size=15;" vertex="1" parent="M_vpcquvCH6vw9jncuj6-1">
          <mxGeometry x="380" y="540" width="60" height="80" as="geometry" />
        </mxCell>
        <mxCell id="M_vpcquvCH6vw9jncuj6-28" value="" style="endArrow=classic;html=1;rounded=0;entryX=0.5;entryY=0;entryDx=0;entryDy=0;exitX=0.5;exitY=1;exitDx=0;exitDy=0;" edge="1" parent="M_vpcquvCH6vw9jncuj6-1" source="M_vpcquvCH6vw9jncuj6-25" target="M_vpcquvCH6vw9jncuj6-26">
          <mxGeometry width="50" height="50" relative="1" as="geometry">
            <mxPoint x="400" y="360" as="sourcePoint" />
            <mxPoint x="450" y="300" as="targetPoint" />
            <Array as="points">
              <mxPoint x="410" y="370" />
            </Array>
          </mxGeometry>
        </mxCell>
        <mxCell id="M_vpcquvCH6vw9jncuj6-29" value="" style="endArrow=classic;html=1;rounded=0;exitX=0.5;exitY=1;exitDx=0;exitDy=0;entryX=0.5;entryY=0;entryDx=0;entryDy=0;entryPerimeter=0;" edge="1" parent="M_vpcquvCH6vw9jncuj6-1" target="M_vpcquvCH6vw9jncuj6-27">
          <mxGeometry width="50" height="50" relative="1" as="geometry">
            <mxPoint x="409.5" y="474" as="sourcePoint" />
            <mxPoint x="410" y="540" as="targetPoint" />
            <Array as="points">
              <mxPoint x="409.5" y="494" />
            </Array>
          </mxGeometry>
        </mxCell>
        <mxCell id="M_vpcquvCH6vw9jncuj6-30" style="edgeStyle=orthogonalEdgeStyle;rounded=0;orthogonalLoop=1;jettySize=auto;html=1;exitX=1;exitY=0.5;exitDx=0;exitDy=0;entryX=0;entryY=0.66;entryDx=0;entryDy=0;entryPerimeter=0;" edge="1" parent="M_vpcquvCH6vw9jncuj6-1" target="M_vpcquvCH6vw9jncuj6-3">
          <mxGeometry relative="1" as="geometry">
            <mxPoint x="470" y="329.58" as="sourcePoint" />
            <mxPoint x="550" y="329.58" as="targetPoint" />
          </mxGeometry>
        </mxCell>
        <mxCell id="M_vpcquvCH6vw9jncuj6-31" value="pymongo-api" style="rounded=1;whiteSpace=wrap;html=1;" vertex="1" parent="M_vpcquvCH6vw9jncuj6-1">
          <mxGeometry x="590" y="300" width="120" height="60" as="geometry" />
        </mxCell>
        <mxCell id="M_vpcquvCH6vw9jncuj6-32" value="pymongo-api" style="rounded=1;whiteSpace=wrap;html=1;" vertex="1" parent="M_vpcquvCH6vw9jncuj6-1">
          <mxGeometry x="600" y="310" width="120" height="60" as="geometry" />
        </mxCell>
        <mxCell id="M_vpcquvCH6vw9jncuj6-33" value="pymongo-api" style="rounded=1;whiteSpace=wrap;html=1;" vertex="1" parent="M_vpcquvCH6vw9jncuj6-1">
          <mxGeometry x="610" y="320" width="120" height="60" as="geometry" />
        </mxCell>
        <mxCell id="wjGynlQVAQlXT2TAeB5_-0" value="pymongo-frontend&lt;div&gt;index.html&lt;/div&gt;" style="rounded=1;whiteSpace=wrap;html=1;" vertex="1" parent="M_vpcquvCH6vw9jncuj6-1">
          <mxGeometry x="110" y="280" width="120" height="60" as="geometry" />
        </mxCell>
        <mxCell id="wjGynlQVAQlXT2TAeB5_-1" value="pymongo-frontend&lt;div&gt;index.html&lt;/div&gt;" style="rounded=1;whiteSpace=wrap;html=1;" vertex="1" parent="M_vpcquvCH6vw9jncuj6-1">
          <mxGeometry x="120" y="290" width="120" height="60" as="geometry" />
        </mxCell>
        <mxCell id="wjGynlQVAQlXT2TAeB5_-2" value="pymongo-frontend&lt;div&gt;index.html&lt;/div&gt;" style="rounded=1;whiteSpace=wrap;html=1;" vertex="1" parent="M_vpcquvCH6vw9jncuj6-1">
          <mxGeometry x="130" y="300" width="120" height="60" as="geometry" />
        </mxCell>
        <mxCell id="wjGynlQVAQlXT2TAeB5_-4" value="" style="endArrow=classic;html=1;rounded=0;exitX=1;exitY=0.5;exitDx=0;exitDy=0;entryX=0;entryY=0.5;entryDx=0;entryDy=0;" edge="1" parent="M_vpcquvCH6vw9jncuj6-1" source="wjGynlQVAQlXT2TAeB5_-2" target="M_vpcquvCH6vw9jncuj6-25">
          <mxGeometry width="50" height="50" relative="1" as="geometry">
            <mxPoint x="460" y="340" as="sourcePoint" />
            <mxPoint x="510" y="290" as="targetPoint" />
          </mxGeometry>
        </mxCell>
        <mxCell id="wjGynlQVAQlXT2TAeB5_-5" value="" style="endArrow=classic;startArrow=classic;html=1;rounded=0;exitX=1;exitY=0.5;exitDx=0;exitDy=0;entryX=0.07;entryY=0.4;entryDx=0;entryDy=0;entryPerimeter=0;" edge="1" parent="M_vpcquvCH6vw9jncuj6-1" source="wjGynlQVAQlXT2TAeB5_-2" target="wjGynlQVAQlXT2TAeB5_-3">
          <mxGeometry width="50" height="50" relative="1" as="geometry">
            <mxPoint x="460" y="340" as="sourcePoint" />
            <mxPoint x="510" y="290" as="targetPoint" />
          </mxGeometry>
        </mxCell>
        <mxCell id="wjGynlQVAQlXT2TAeB5_-7" value="" style="group" vertex="1" connectable="0" parent="M_vpcquvCH6vw9jncuj6-1">
          <mxGeometry x="340" y="110" width="140" height="80" as="geometry" />
        </mxCell>
        <mxCell id="wjGynlQVAQlXT2TAeB5_-3" value="" style="ellipse;shape=cloud;whiteSpace=wrap;html=1;" vertex="1" parent="wjGynlQVAQlXT2TAeB5_-7">
          <mxGeometry width="140" height="80" as="geometry" />
        </mxCell>
        <UserObject label="&lt;div style=&quot;text-align: center;&quot;&gt;&lt;span style=&quot;background-color: transparent; color: light-dark(rgb(0, 0, 0), rgb(255, 255, 255));&quot;&gt;CDN&lt;/span&gt;&lt;/div&gt;&lt;div style=&quot;text-align: center;&quot;&gt;&lt;span style=&quot;background-color: transparent; color: light-dark(rgb(0, 0, 0), rgb(255, 255, 255));&quot;&gt;Yandex-Cloud&lt;/span&gt;&lt;/div&gt;" link="&lt;span style=&quot;color: rgb(0, 0, 0); font-family: Helvetica; font-size: 12px; font-style: normal; font-variant-ligatures: normal; font-variant-caps: normal; font-weight: 400; letter-spacing: normal; orphans: 2; text-align: center; text-indent: 0px; text-transform: none; widows: 2; word-spacing: 0px; -webkit-text-stroke-width: 0px; white-space: normal; background-color: rgb(251, 251, 251); text-decoration-thickness: initial; text-decoration-style: initial; text-decoration-color: initial; display: inline !important; float: none;&quot;&gt;pymongo-frontend&lt;/span&gt;&lt;div style=&quot;forced-color-adjust: none; color: rgb(0, 0, 0); font-family: Helvetica; font-size: 12px; font-style: normal; font-variant-ligatures: normal; font-variant-caps: normal; font-weight: 400; letter-spacing: normal; orphans: 2; text-align: center; text-indent: 0px; text-transform: none; widows: 2; word-spacing: 0px; -webkit-text-stroke-width: 0px; white-space: normal; background-color: rgb(251, 251, 251); text-decoration-thickness: initial; text-decoration-style: initial; text-decoration-color: initial;&quot;&gt;index.html&lt;/div&gt;" id="wjGynlQVAQlXT2TAeB5_-6">
          <mxCell style="text;whiteSpace=wrap;html=1;" vertex="1" parent="wjGynlQVAQlXT2TAeB5_-7">
            <mxGeometry x="30" y="20" width="80" height="40" as="geometry" />
          </mxCell>
        </UserObject>
      </root>
    </mxGraphModel>
  </diagram>
  <diagram name="Service Discovery" id="_5Rs3kJksVmh_AKHZ-GS">
    <mxGraphModel dx="863" dy="512" grid="1" gridSize="10" guides="1" tooltips="1" connect="1" arrows="1" fold="1" page="1" pageScale="1" pageWidth="1169" pageHeight="827" math="0" shadow="0">
      <root>
        <mxCell id="-PUA_04Tipyhy5z-k6bV-0" />
        <mxCell id="-PUA_04Tipyhy5z-k6bV-1" parent="-PUA_04Tipyhy5z-k6bV-0" />
        <mxCell id="-PUA_04Tipyhy5z-k6bV-2" value="MongoDB&lt;div&gt;&lt;font style=&quot;font-size: 8px;&quot;&gt;mongos_router&lt;/font&gt;&lt;/div&gt;" style="shape=cylinder3;whiteSpace=wrap;html=1;boundedLbl=1;backgroundOutline=1;size=15;" vertex="1" parent="-PUA_04Tipyhy5z-k6bV-1">
          <mxGeometry x="560" y="280" width="60" height="80" as="geometry" />
        </mxCell>
        <mxCell id="-PUA_04Tipyhy5z-k6bV-3" value="pymongo-api" style="rounded=1;whiteSpace=wrap;html=1;" vertex="1" parent="-PUA_04Tipyhy5z-k6bV-1">
          <mxGeometry x="360" y="290" width="120" height="60" as="geometry" />
        </mxCell>
        <mxCell id="-PUA_04Tipyhy5z-k6bV-4" style="edgeStyle=orthogonalEdgeStyle;rounded=0;orthogonalLoop=1;jettySize=auto;html=1;exitX=1;exitY=0.5;exitDx=0;exitDy=0;entryX=0;entryY=0.5;entryDx=0;entryDy=0;entryPerimeter=0;" edge="1" parent="-PUA_04Tipyhy5z-k6bV-1" source="-PUA_04Tipyhy5z-k6bV-3" target="-PUA_04Tipyhy5z-k6bV-2">
          <mxGeometry relative="1" as="geometry" />
        </mxCell>
        <mxCell id="-PUA_04Tipyhy5z-k6bV-5" value="MongoDB&lt;div&gt;shard2-1&lt;/div&gt;" style="shape=cylinder3;whiteSpace=wrap;html=1;boundedLbl=1;backgroundOutline=1;size=15;" vertex="1" parent="-PUA_04Tipyhy5z-k6bV-1">
          <mxGeometry x="680" y="400" width="60" height="80" as="geometry" />
        </mxCell>
        <mxCell id="-PUA_04Tipyhy5z-k6bV-6" value="MongoDB&lt;div&gt;shard1-1&lt;/div&gt;" style="shape=cylinder3;whiteSpace=wrap;html=1;boundedLbl=1;backgroundOutline=1;size=15;" vertex="1" parent="-PUA_04Tipyhy5z-k6bV-1">
          <mxGeometry x="680" y="160" width="60" height="80" as="geometry" />
        </mxCell>
        <mxCell id="-PUA_04Tipyhy5z-k6bV-7" value="MongoDB&lt;div&gt;configSrv1&lt;/div&gt;" style="shape=cylinder3;whiteSpace=wrap;html=1;boundedLbl=1;backgroundOutline=1;size=15;" vertex="1" parent="-PUA_04Tipyhy5z-k6bV-1">
          <mxGeometry x="560" y="160" width="60" height="80" as="geometry" />
        </mxCell>
        <mxCell id="-PUA_04Tipyhy5z-k6bV-8" style="edgeStyle=orthogonalEdgeStyle;rounded=0;orthogonalLoop=1;jettySize=auto;html=1;exitX=1;exitY=0.5;exitDx=0;exitDy=0;entryX=0;entryY=0;entryDx=0;entryDy=52.5;entryPerimeter=0;exitPerimeter=0;" edge="1" parent="-PUA_04Tipyhy5z-k6bV-1" source="-PUA_04Tipyhy5z-k6bV-2" target="-PUA_04Tipyhy5z-k6bV-5">
          <mxGeometry relative="1" as="geometry">
            <mxPoint x="610" y="334" as="sourcePoint" />
            <mxPoint x="690" y="334" as="targetPoint" />
          </mxGeometry>
        </mxCell>
        <mxCell id="-PUA_04Tipyhy5z-k6bV-9" style="edgeStyle=orthogonalEdgeStyle;rounded=0;orthogonalLoop=1;jettySize=auto;html=1;exitX=1;exitY=0.5;exitDx=0;exitDy=0;entryX=0;entryY=0.5;entryDx=0;entryDy=0;entryPerimeter=0;exitPerimeter=0;" edge="1" parent="-PUA_04Tipyhy5z-k6bV-1" target="-PUA_04Tipyhy5z-k6bV-6">
          <mxGeometry relative="1" as="geometry">
            <mxPoint x="620" y="320" as="sourcePoint" />
            <mxPoint x="670" y="387" as="targetPoint" />
          </mxGeometry>
        </mxCell>
        <mxCell id="-PUA_04Tipyhy5z-k6bV-10" style="edgeStyle=orthogonalEdgeStyle;rounded=0;orthogonalLoop=1;jettySize=auto;html=1;exitX=0.5;exitY=0;exitDx=0;exitDy=0;entryX=0.5;entryY=1;entryDx=0;entryDy=0;entryPerimeter=0;exitPerimeter=0;" edge="1" parent="-PUA_04Tipyhy5z-k6bV-1" source="-PUA_04Tipyhy5z-k6bV-2" target="-PUA_04Tipyhy5z-k6bV-7">
          <mxGeometry relative="1" as="geometry">
            <mxPoint x="600" y="283" as="sourcePoint" />
            <mxPoint x="650" y="350" as="targetPoint" />
          </mxGeometry>
        </mxCell>
        <mxCell id="-PUA_04Tipyhy5z-k6bV-11" value="MongoDB&lt;div&gt;shard1-2&lt;/div&gt;" style="shape=cylinder3;whiteSpace=wrap;html=1;boundedLbl=1;backgroundOutline=1;size=15;" vertex="1" parent="-PUA_04Tipyhy5z-k6bV-1">
          <mxGeometry x="760" y="100" width="60" height="80" as="geometry" />
        </mxCell>
        <mxCell id="-PUA_04Tipyhy5z-k6bV-12" value="MongoDB&lt;div&gt;shard1-3&lt;/div&gt;" style="shape=cylinder3;whiteSpace=wrap;html=1;boundedLbl=1;backgroundOutline=1;size=15;" vertex="1" parent="-PUA_04Tipyhy5z-k6bV-1">
          <mxGeometry x="760" y="210" width="60" height="80" as="geometry" />
        </mxCell>
        <mxCell id="-PUA_04Tipyhy5z-k6bV-13" value="MongoDB&lt;div&gt;shard2-2&lt;/div&gt;" style="shape=cylinder3;whiteSpace=wrap;html=1;boundedLbl=1;backgroundOutline=1;size=15;" vertex="1" parent="-PUA_04Tipyhy5z-k6bV-1">
          <mxGeometry x="760" y="334" width="60" height="80" as="geometry" />
        </mxCell>
        <mxCell id="-PUA_04Tipyhy5z-k6bV-14" value="MongoDB&lt;div&gt;shard2-3&lt;/div&gt;" style="shape=cylinder3;whiteSpace=wrap;html=1;boundedLbl=1;backgroundOutline=1;size=15;" vertex="1" parent="-PUA_04Tipyhy5z-k6bV-1">
          <mxGeometry x="760" y="470" width="60" height="80" as="geometry" />
        </mxCell>
        <mxCell id="-PUA_04Tipyhy5z-k6bV-15" value="MongoDB&lt;div&gt;configSrv2&lt;/div&gt;" style="shape=cylinder3;whiteSpace=wrap;html=1;boundedLbl=1;backgroundOutline=1;size=15;" vertex="1" parent="-PUA_04Tipyhy5z-k6bV-1">
          <mxGeometry x="500" y="60" width="60" height="80" as="geometry" />
        </mxCell>
        <mxCell id="-PUA_04Tipyhy5z-k6bV-16" value="MongoDB&lt;div&gt;configSrv3&lt;/div&gt;" style="shape=cylinder3;whiteSpace=wrap;html=1;boundedLbl=1;backgroundOutline=1;size=15;" vertex="1" parent="-PUA_04Tipyhy5z-k6bV-1">
          <mxGeometry x="620" y="60" width="60" height="80" as="geometry" />
        </mxCell>
        <mxCell id="-PUA_04Tipyhy5z-k6bV-17" value="" style="endArrow=classic;startArrow=classic;html=1;rounded=0;exitX=0.855;exitY=0;exitDx=0;exitDy=4.35;exitPerimeter=0;" edge="1" parent="-PUA_04Tipyhy5z-k6bV-1" source="-PUA_04Tipyhy5z-k6bV-7">
          <mxGeometry width="50" height="50" relative="1" as="geometry">
            <mxPoint x="600" y="190" as="sourcePoint" />
            <mxPoint x="650" y="140" as="targetPoint" />
          </mxGeometry>
        </mxCell>
        <mxCell id="-PUA_04Tipyhy5z-k6bV-18" value="" style="endArrow=classic;startArrow=classic;html=1;rounded=0;exitX=0.145;exitY=0;exitDx=0;exitDy=4.35;exitPerimeter=0;" edge="1" parent="-PUA_04Tipyhy5z-k6bV-1" source="-PUA_04Tipyhy5z-k6bV-7">
          <mxGeometry width="50" height="50" relative="1" as="geometry">
            <mxPoint x="480" y="190" as="sourcePoint" />
            <mxPoint x="530" y="140" as="targetPoint" />
          </mxGeometry>
        </mxCell>
        <mxCell id="-PUA_04Tipyhy5z-k6bV-19" value="" style="endArrow=classic;startArrow=classic;html=1;rounded=0;exitX=1;exitY=0;exitDx=0;exitDy=27.5;exitPerimeter=0;entryX=0;entryY=0.875;entryDx=0;entryDy=0;entryPerimeter=0;" edge="1" parent="-PUA_04Tipyhy5z-k6bV-1" source="-PUA_04Tipyhy5z-k6bV-6" target="-PUA_04Tipyhy5z-k6bV-11">
          <mxGeometry width="50" height="50" relative="1" as="geometry">
            <mxPoint x="740" y="210" as="sourcePoint" />
            <mxPoint x="790" y="160" as="targetPoint" />
          </mxGeometry>
        </mxCell>
        <mxCell id="-PUA_04Tipyhy5z-k6bV-20" value="" style="endArrow=classic;startArrow=classic;html=1;rounded=0;exitX=0;exitY=0;exitDx=0;exitDy=27.5;exitPerimeter=0;" edge="1" parent="-PUA_04Tipyhy5z-k6bV-1" source="-PUA_04Tipyhy5z-k6bV-12">
          <mxGeometry width="50" height="50" relative="1" as="geometry">
            <mxPoint x="690" y="270" as="sourcePoint" />
            <mxPoint x="740" y="220" as="targetPoint" />
          </mxGeometry>
        </mxCell>
        <mxCell id="-PUA_04Tipyhy5z-k6bV-21" value="" style="endArrow=classic;startArrow=classic;html=1;rounded=0;exitX=1;exitY=0;exitDx=0;exitDy=27.5;exitPerimeter=0;" edge="1" parent="-PUA_04Tipyhy5z-k6bV-1" source="-PUA_04Tipyhy5z-k6bV-5">
          <mxGeometry width="50" height="50" relative="1" as="geometry">
            <mxPoint x="710" y="450" as="sourcePoint" />
            <mxPoint x="760" y="400" as="targetPoint" />
          </mxGeometry>
        </mxCell>
        <mxCell id="-PUA_04Tipyhy5z-k6bV-22" value="" style="endArrow=classic;startArrow=classic;html=1;rounded=0;exitX=0.006;exitY=0.102;exitDx=0;exitDy=0;exitPerimeter=0;entryX=1;entryY=1;entryDx=0;entryDy=-15;entryPerimeter=0;" edge="1" parent="-PUA_04Tipyhy5z-k6bV-1" source="-PUA_04Tipyhy5z-k6bV-14" target="-PUA_04Tipyhy5z-k6bV-5">
          <mxGeometry width="50" height="50" relative="1" as="geometry">
            <mxPoint x="540" y="360" as="sourcePoint" />
            <mxPoint x="590" y="310" as="targetPoint" />
          </mxGeometry>
        </mxCell>
        <mxCell id="-PUA_04Tipyhy5z-k6bV-23" value="redis" style="shape=cylinder3;whiteSpace=wrap;html=1;boundedLbl=1;backgroundOutline=1;size=15;" vertex="1" parent="-PUA_04Tipyhy5z-k6bV-1">
          <mxGeometry x="560" y="530" width="60" height="80" as="geometry" />
        </mxCell>
        <mxCell id="-PUA_04Tipyhy5z-k6bV-24" value="" style="endArrow=classic;html=1;rounded=0;entryX=0.5;entryY=0;entryDx=0;entryDy=0;entryPerimeter=0;exitX=0.5;exitY=1;exitDx=0;exitDy=0;exitPerimeter=0;" edge="1" parent="-PUA_04Tipyhy5z-k6bV-1" source="-PUA_04Tipyhy5z-k6bV-2" target="-PUA_04Tipyhy5z-k6bV-23">
          <mxGeometry width="50" height="50" relative="1" as="geometry">
            <mxPoint x="510" y="350" as="sourcePoint" />
            <mxPoint x="560" y="300" as="targetPoint" />
          </mxGeometry>
        </mxCell>
        <mxCell id="vRYMN1y86PATM7v1Qg3P-0" value="API Gateway&lt;div&gt;apisix&lt;/div&gt;" style="rounded=1;whiteSpace=wrap;html=1;" vertex="1" parent="-PUA_04Tipyhy5z-k6bV-1">
          <mxGeometry x="130" y="300" width="120" height="60" as="geometry" />
        </mxCell>
        <mxCell id="vRYMN1y86PATM7v1Qg3P-1" value="Consul" style="rounded=1;whiteSpace=wrap;html=1;" vertex="1" parent="-PUA_04Tipyhy5z-k6bV-1">
          <mxGeometry x="130" y="414" width="120" height="60" as="geometry" />
        </mxCell>
        <mxCell id="vRYMN1y86PATM7v1Qg3P-3" value="etcd" style="shape=cylinder3;whiteSpace=wrap;html=1;boundedLbl=1;backgroundOutline=1;size=15;" vertex="1" parent="-PUA_04Tipyhy5z-k6bV-1">
          <mxGeometry x="160" y="540" width="60" height="80" as="geometry" />
        </mxCell>
        <mxCell id="vRYMN1y86PATM7v1Qg3P-4" value="" style="endArrow=classic;html=1;rounded=0;entryX=0.5;entryY=0;entryDx=0;entryDy=0;exitX=0.5;exitY=1;exitDx=0;exitDy=0;" edge="1" parent="-PUA_04Tipyhy5z-k6bV-1" source="vRYMN1y86PATM7v1Qg3P-0" target="vRYMN1y86PATM7v1Qg3P-1">
          <mxGeometry width="50" height="50" relative="1" as="geometry">
            <mxPoint x="180" y="360" as="sourcePoint" />
            <mxPoint x="230" y="300" as="targetPoint" />
            <Array as="points">
              <mxPoint x="190" y="370" />
            </Array>
          </mxGeometry>
        </mxCell>
        <mxCell id="vRYMN1y86PATM7v1Qg3P-5" value="" style="endArrow=classic;html=1;rounded=0;exitX=0.5;exitY=1;exitDx=0;exitDy=0;entryX=0.5;entryY=0;entryDx=0;entryDy=0;entryPerimeter=0;" edge="1" parent="-PUA_04Tipyhy5z-k6bV-1" target="vRYMN1y86PATM7v1Qg3P-3">
          <mxGeometry width="50" height="50" relative="1" as="geometry">
            <mxPoint x="189.5" y="474" as="sourcePoint" />
            <mxPoint x="190" y="540" as="targetPoint" />
            <Array as="points">
              <mxPoint x="189.5" y="494" />
            </Array>
          </mxGeometry>
        </mxCell>
        <mxCell id="vRYMN1y86PATM7v1Qg3P-6" style="edgeStyle=orthogonalEdgeStyle;rounded=0;orthogonalLoop=1;jettySize=auto;html=1;exitX=1;exitY=0.5;exitDx=0;exitDy=0;entryX=0;entryY=0.66;entryDx=0;entryDy=0;entryPerimeter=0;" edge="1" parent="-PUA_04Tipyhy5z-k6bV-1" target="-PUA_04Tipyhy5z-k6bV-3">
          <mxGeometry relative="1" as="geometry">
            <mxPoint x="250" y="329.58" as="sourcePoint" />
            <mxPoint x="330" y="329.58" as="targetPoint" />
          </mxGeometry>
        </mxCell>
        <mxCell id="vRYMN1y86PATM7v1Qg3P-7" value="pymongo-api" style="rounded=1;whiteSpace=wrap;html=1;" vertex="1" parent="-PUA_04Tipyhy5z-k6bV-1">
          <mxGeometry x="370" y="300" width="120" height="60" as="geometry" />
        </mxCell>
        <mxCell id="vRYMN1y86PATM7v1Qg3P-8" value="pymongo-api" style="rounded=1;whiteSpace=wrap;html=1;" vertex="1" parent="-PUA_04Tipyhy5z-k6bV-1">
          <mxGeometry x="380" y="310" width="120" height="60" as="geometry" />
        </mxCell>
        <mxCell id="vRYMN1y86PATM7v1Qg3P-9" value="pymongo-api" style="rounded=1;whiteSpace=wrap;html=1;" vertex="1" parent="-PUA_04Tipyhy5z-k6bV-1">
          <mxGeometry x="390" y="320" width="120" height="60" as="geometry" />
        </mxCell>
      </root>
    </mxGraphModel>
  </diagram>
  <diagram name="sharding+replica+cache" id="j2NIFTEPr7IfbGyqnDDj">
    <mxGraphModel dx="600" dy="359" grid="1" gridSize="10" guides="1" tooltips="1" connect="1" arrows="1" fold="1" page="1" pageScale="1" pageWidth="1169" pageHeight="827" math="0" shadow="0">
      <root>
        <mxCell id="_dbxYW1ZDYY3b-8lYSyd-0" />
        <mxCell id="_dbxYW1ZDYY3b-8lYSyd-1" parent="_dbxYW1ZDYY3b-8lYSyd-0" />
        <mxCell id="_dbxYW1ZDYY3b-8lYSyd-2" value="MongoDB&lt;div&gt;&lt;font style=&quot;font-size: 8px;&quot;&gt;mongos_router&lt;/font&gt;&lt;/div&gt;" style="shape=cylinder3;whiteSpace=wrap;html=1;boundedLbl=1;backgroundOutline=1;size=15;" parent="_dbxYW1ZDYY3b-8lYSyd-1" vertex="1">
          <mxGeometry x="560" y="280" width="60" height="80" as="geometry" />
        </mxCell>
        <mxCell id="_dbxYW1ZDYY3b-8lYSyd-3" value="pymongo-api" style="rounded=1;whiteSpace=wrap;html=1;" parent="_dbxYW1ZDYY3b-8lYSyd-1" vertex="1">
          <mxGeometry x="360" y="290" width="120" height="60" as="geometry" />
        </mxCell>
        <mxCell id="_dbxYW1ZDYY3b-8lYSyd-4" style="edgeStyle=orthogonalEdgeStyle;rounded=0;orthogonalLoop=1;jettySize=auto;html=1;exitX=1;exitY=0.5;exitDx=0;exitDy=0;entryX=0;entryY=0.5;entryDx=0;entryDy=0;entryPerimeter=0;" parent="_dbxYW1ZDYY3b-8lYSyd-1" source="_dbxYW1ZDYY3b-8lYSyd-3" target="_dbxYW1ZDYY3b-8lYSyd-2" edge="1">
          <mxGeometry relative="1" as="geometry" />
        </mxCell>
        <mxCell id="_dbxYW1ZDYY3b-8lYSyd-5" value="MongoDB&lt;div&gt;shard2-1&lt;/div&gt;" style="shape=cylinder3;whiteSpace=wrap;html=1;boundedLbl=1;backgroundOutline=1;size=15;" parent="_dbxYW1ZDYY3b-8lYSyd-1" vertex="1">
          <mxGeometry x="680" y="400" width="60" height="80" as="geometry" />
        </mxCell>
        <mxCell id="_dbxYW1ZDYY3b-8lYSyd-6" value="MongoDB&lt;div&gt;shard1-1&lt;/div&gt;" style="shape=cylinder3;whiteSpace=wrap;html=1;boundedLbl=1;backgroundOutline=1;size=15;" parent="_dbxYW1ZDYY3b-8lYSyd-1" vertex="1">
          <mxGeometry x="680" y="160" width="60" height="80" as="geometry" />
        </mxCell>
        <mxCell id="_dbxYW1ZDYY3b-8lYSyd-7" value="MongoDB&lt;div&gt;configSrv1&lt;/div&gt;" style="shape=cylinder3;whiteSpace=wrap;html=1;boundedLbl=1;backgroundOutline=1;size=15;" parent="_dbxYW1ZDYY3b-8lYSyd-1" vertex="1">
          <mxGeometry x="560" y="160" width="60" height="80" as="geometry" />
        </mxCell>
        <mxCell id="_dbxYW1ZDYY3b-8lYSyd-8" style="edgeStyle=orthogonalEdgeStyle;rounded=0;orthogonalLoop=1;jettySize=auto;html=1;exitX=1;exitY=0.5;exitDx=0;exitDy=0;entryX=0;entryY=0;entryDx=0;entryDy=52.5;entryPerimeter=0;exitPerimeter=0;" parent="_dbxYW1ZDYY3b-8lYSyd-1" source="_dbxYW1ZDYY3b-8lYSyd-2" target="_dbxYW1ZDYY3b-8lYSyd-5" edge="1">
          <mxGeometry relative="1" as="geometry">
            <mxPoint x="610" y="334" as="sourcePoint" />
            <mxPoint x="690" y="334" as="targetPoint" />
          </mxGeometry>
        </mxCell>
        <mxCell id="_dbxYW1ZDYY3b-8lYSyd-9" style="edgeStyle=orthogonalEdgeStyle;rounded=0;orthogonalLoop=1;jettySize=auto;html=1;exitX=1;exitY=0.5;exitDx=0;exitDy=0;entryX=0;entryY=0.5;entryDx=0;entryDy=0;entryPerimeter=0;exitPerimeter=0;" parent="_dbxYW1ZDYY3b-8lYSyd-1" target="_dbxYW1ZDYY3b-8lYSyd-6" edge="1">
          <mxGeometry relative="1" as="geometry">
            <mxPoint x="620" y="320" as="sourcePoint" />
            <mxPoint x="670" y="387" as="targetPoint" />
          </mxGeometry>
        </mxCell>
        <mxCell id="_dbxYW1ZDYY3b-8lYSyd-10" style="edgeStyle=orthogonalEdgeStyle;rounded=0;orthogonalLoop=1;jettySize=auto;html=1;exitX=0.5;exitY=0;exitDx=0;exitDy=0;entryX=0.5;entryY=1;entryDx=0;entryDy=0;entryPerimeter=0;exitPerimeter=0;" parent="_dbxYW1ZDYY3b-8lYSyd-1" source="_dbxYW1ZDYY3b-8lYSyd-2" target="_dbxYW1ZDYY3b-8lYSyd-7" edge="1">
          <mxGeometry relative="1" as="geometry">
            <mxPoint x="600" y="283" as="sourcePoint" />
            <mxPoint x="650" y="350" as="targetPoint" />
          </mxGeometry>
        </mxCell>
        <mxCell id="_dbxYW1ZDYY3b-8lYSyd-11" value="MongoDB&lt;div&gt;shard1-2&lt;/div&gt;" style="shape=cylinder3;whiteSpace=wrap;html=1;boundedLbl=1;backgroundOutline=1;size=15;" parent="_dbxYW1ZDYY3b-8lYSyd-1" vertex="1">
          <mxGeometry x="760" y="100" width="60" height="80" as="geometry" />
        </mxCell>
        <mxCell id="_dbxYW1ZDYY3b-8lYSyd-12" value="MongoDB&lt;div&gt;shard1-3&lt;/div&gt;" style="shape=cylinder3;whiteSpace=wrap;html=1;boundedLbl=1;backgroundOutline=1;size=15;" parent="_dbxYW1ZDYY3b-8lYSyd-1" vertex="1">
          <mxGeometry x="760" y="210" width="60" height="80" as="geometry" />
        </mxCell>
        <mxCell id="_dbxYW1ZDYY3b-8lYSyd-13" value="MongoDB&lt;div&gt;shard2-2&lt;/div&gt;" style="shape=cylinder3;whiteSpace=wrap;html=1;boundedLbl=1;backgroundOutline=1;size=15;" parent="_dbxYW1ZDYY3b-8lYSyd-1" vertex="1">
          <mxGeometry x="760" y="334" width="60" height="80" as="geometry" />
        </mxCell>
        <mxCell id="_dbxYW1ZDYY3b-8lYSyd-14" value="MongoDB&lt;div&gt;shard2-3&lt;/div&gt;" style="shape=cylinder3;whiteSpace=wrap;html=1;boundedLbl=1;backgroundOutline=1;size=15;" parent="_dbxYW1ZDYY3b-8lYSyd-1" vertex="1">
          <mxGeometry x="760" y="470" width="60" height="80" as="geometry" />
        </mxCell>
        <mxCell id="_dbxYW1ZDYY3b-8lYSyd-15" value="MongoDB&lt;div&gt;configSrv2&lt;/div&gt;" style="shape=cylinder3;whiteSpace=wrap;html=1;boundedLbl=1;backgroundOutline=1;size=15;" parent="_dbxYW1ZDYY3b-8lYSyd-1" vertex="1">
          <mxGeometry x="500" y="60" width="60" height="80" as="geometry" />
        </mxCell>
        <mxCell id="_dbxYW1ZDYY3b-8lYSyd-16" value="MongoDB&lt;div&gt;configSrv3&lt;/div&gt;" style="shape=cylinder3;whiteSpace=wrap;html=1;boundedLbl=1;backgroundOutline=1;size=15;" parent="_dbxYW1ZDYY3b-8lYSyd-1" vertex="1">
          <mxGeometry x="620" y="60" width="60" height="80" as="geometry" />
        </mxCell>
        <mxCell id="_dbxYW1ZDYY3b-8lYSyd-17" value="" style="endArrow=classic;startArrow=classic;html=1;rounded=0;exitX=0.855;exitY=0;exitDx=0;exitDy=4.35;exitPerimeter=0;" parent="_dbxYW1ZDYY3b-8lYSyd-1" source="_dbxYW1ZDYY3b-8lYSyd-7" edge="1">
          <mxGeometry width="50" height="50" relative="1" as="geometry">
            <mxPoint x="600" y="190" as="sourcePoint" />
            <mxPoint x="650" y="140" as="targetPoint" />
          </mxGeometry>
        </mxCell>
        <mxCell id="_dbxYW1ZDYY3b-8lYSyd-18" value="" style="endArrow=classic;startArrow=classic;html=1;rounded=0;exitX=0.145;exitY=0;exitDx=0;exitDy=4.35;exitPerimeter=0;" parent="_dbxYW1ZDYY3b-8lYSyd-1" source="_dbxYW1ZDYY3b-8lYSyd-7" edge="1">
          <mxGeometry width="50" height="50" relative="1" as="geometry">
            <mxPoint x="480" y="190" as="sourcePoint" />
            <mxPoint x="530" y="140" as="targetPoint" />
          </mxGeometry>
        </mxCell>
        <mxCell id="_dbxYW1ZDYY3b-8lYSyd-19" value="" style="endArrow=classic;startArrow=classic;html=1;rounded=0;exitX=1;exitY=0;exitDx=0;exitDy=27.5;exitPerimeter=0;entryX=0;entryY=0.875;entryDx=0;entryDy=0;entryPerimeter=0;" parent="_dbxYW1ZDYY3b-8lYSyd-1" source="_dbxYW1ZDYY3b-8lYSyd-6" target="_dbxYW1ZDYY3b-8lYSyd-11" edge="1">
          <mxGeometry width="50" height="50" relative="1" as="geometry">
            <mxPoint x="740" y="210" as="sourcePoint" />
            <mxPoint x="790" y="160" as="targetPoint" />
          </mxGeometry>
        </mxCell>
        <mxCell id="_dbxYW1ZDYY3b-8lYSyd-20" value="" style="endArrow=classic;startArrow=classic;html=1;rounded=0;exitX=0;exitY=0;exitDx=0;exitDy=27.5;exitPerimeter=0;" parent="_dbxYW1ZDYY3b-8lYSyd-1" source="_dbxYW1ZDYY3b-8lYSyd-12" edge="1">
          <mxGeometry width="50" height="50" relative="1" as="geometry">
            <mxPoint x="690" y="270" as="sourcePoint" />
            <mxPoint x="740" y="220" as="targetPoint" />
          </mxGeometry>
        </mxCell>
        <mxCell id="_dbxYW1ZDYY3b-8lYSyd-21" value="" style="endArrow=classic;startArrow=classic;html=1;rounded=0;exitX=1;exitY=0;exitDx=0;exitDy=27.5;exitPerimeter=0;" parent="_dbxYW1ZDYY3b-8lYSyd-1" source="_dbxYW1ZDYY3b-8lYSyd-5" edge="1">
          <mxGeometry width="50" height="50" relative="1" as="geometry">
            <mxPoint x="710" y="450" as="sourcePoint" />
            <mxPoint x="760" y="400" as="targetPoint" />
          </mxGeometry>
        </mxCell>
        <mxCell id="_dbxYW1ZDYY3b-8lYSyd-22" value="" style="endArrow=classic;startArrow=classic;html=1;rounded=0;exitX=0.006;exitY=0.102;exitDx=0;exitDy=0;exitPerimeter=0;entryX=1;entryY=1;entryDx=0;entryDy=-15;entryPerimeter=0;" parent="_dbxYW1ZDYY3b-8lYSyd-1" source="_dbxYW1ZDYY3b-8lYSyd-14" target="_dbxYW1ZDYY3b-8lYSyd-5" edge="1">
          <mxGeometry width="50" height="50" relative="1" as="geometry">
            <mxPoint x="540" y="360" as="sourcePoint" />
            <mxPoint x="590" y="310" as="targetPoint" />
          </mxGeometry>
        </mxCell>
        <mxCell id="OkuPnz961eYbJbLw0-BT-0" value="redis" style="shape=cylinder3;whiteSpace=wrap;html=1;boundedLbl=1;backgroundOutline=1;size=15;" parent="_dbxYW1ZDYY3b-8lYSyd-1" vertex="1">
          <mxGeometry x="560" y="530" width="60" height="80" as="geometry" />
        </mxCell>
        <mxCell id="OkuPnz961eYbJbLw0-BT-1" value="" style="endArrow=classic;html=1;rounded=0;entryX=0.5;entryY=0;entryDx=0;entryDy=0;entryPerimeter=0;exitX=0.5;exitY=1;exitDx=0;exitDy=0;exitPerimeter=0;" parent="_dbxYW1ZDYY3b-8lYSyd-1" source="_dbxYW1ZDYY3b-8lYSyd-2" target="OkuPnz961eYbJbLw0-BT-0" edge="1">
          <mxGeometry width="50" height="50" relative="1" as="geometry">
            <mxPoint x="510" y="350" as="sourcePoint" />
            <mxPoint x="560" y="300" as="targetPoint" />
          </mxGeometry>
        </mxCell>
      </root>
    </mxGraphModel>
  </diagram>
  <diagram name="sharding+replica" id="tYlC89cmPTUgLoRwyKrv">
    <mxGraphModel dx="1050" dy="629" grid="1" gridSize="10" guides="1" tooltips="1" connect="1" arrows="1" fold="1" page="1" pageScale="1" pageWidth="1169" pageHeight="827" math="0" shadow="0">
      <root>
        <mxCell id="vcYfuEv9-DNJxLzIenWE-0" />
        <mxCell id="vcYfuEv9-DNJxLzIenWE-1" parent="vcYfuEv9-DNJxLzIenWE-0" />
        <mxCell id="vcYfuEv9-DNJxLzIenWE-2" value="MongoDB&lt;div&gt;&lt;span style=&quot;font-size: 8px;&quot;&gt;mongos_router&lt;/span&gt;&lt;br&gt;&lt;/div&gt;" style="shape=cylinder3;whiteSpace=wrap;html=1;boundedLbl=1;backgroundOutline=1;size=15;" parent="vcYfuEv9-DNJxLzIenWE-1" vertex="1">
          <mxGeometry x="560" y="280" width="60" height="80" as="geometry" />
        </mxCell>
        <mxCell id="vcYfuEv9-DNJxLzIenWE-3" value="pymongo-api" style="rounded=1;whiteSpace=wrap;html=1;" parent="vcYfuEv9-DNJxLzIenWE-1" vertex="1">
          <mxGeometry x="360" y="290" width="120" height="60" as="geometry" />
        </mxCell>
        <mxCell id="vcYfuEv9-DNJxLzIenWE-4" style="edgeStyle=orthogonalEdgeStyle;rounded=0;orthogonalLoop=1;jettySize=auto;html=1;exitX=1;exitY=0.5;exitDx=0;exitDy=0;entryX=0;entryY=0.5;entryDx=0;entryDy=0;entryPerimeter=0;" parent="vcYfuEv9-DNJxLzIenWE-1" source="vcYfuEv9-DNJxLzIenWE-3" target="vcYfuEv9-DNJxLzIenWE-2" edge="1">
          <mxGeometry relative="1" as="geometry" />
        </mxCell>
        <mxCell id="vcYfuEv9-DNJxLzIenWE-5" value="MongoDB&lt;div&gt;shard2-1&lt;/div&gt;" style="shape=cylinder3;whiteSpace=wrap;html=1;boundedLbl=1;backgroundOutline=1;size=15;" parent="vcYfuEv9-DNJxLzIenWE-1" vertex="1">
          <mxGeometry x="680" y="400" width="60" height="80" as="geometry" />
        </mxCell>
        <mxCell id="vcYfuEv9-DNJxLzIenWE-6" value="MongoDB&lt;div&gt;shard1-1&lt;/div&gt;" style="shape=cylinder3;whiteSpace=wrap;html=1;boundedLbl=1;backgroundOutline=1;size=15;" parent="vcYfuEv9-DNJxLzIenWE-1" vertex="1">
          <mxGeometry x="680" y="160" width="60" height="80" as="geometry" />
        </mxCell>
        <mxCell id="vcYfuEv9-DNJxLzIenWE-7" value="MongoDB&lt;div&gt;configSrv1&lt;/div&gt;" style="shape=cylinder3;whiteSpace=wrap;html=1;boundedLbl=1;backgroundOutline=1;size=15;" parent="vcYfuEv9-DNJxLzIenWE-1" vertex="1">
          <mxGeometry x="560" y="160" width="60" height="80" as="geometry" />
        </mxCell>
        <mxCell id="vcYfuEv9-DNJxLzIenWE-8" style="edgeStyle=orthogonalEdgeStyle;rounded=0;orthogonalLoop=1;jettySize=auto;html=1;exitX=1;exitY=0.5;exitDx=0;exitDy=0;entryX=0;entryY=0;entryDx=0;entryDy=52.5;entryPerimeter=0;exitPerimeter=0;" parent="vcYfuEv9-DNJxLzIenWE-1" source="vcYfuEv9-DNJxLzIenWE-2" target="vcYfuEv9-DNJxLzIenWE-5" edge="1">
          <mxGeometry relative="1" as="geometry">
            <mxPoint x="610" y="334" as="sourcePoint" />
            <mxPoint x="690" y="334" as="targetPoint" />
          </mxGeometry>
        </mxCell>
        <mxCell id="vcYfuEv9-DNJxLzIenWE-9" style="edgeStyle=orthogonalEdgeStyle;rounded=0;orthogonalLoop=1;jettySize=auto;html=1;exitX=1;exitY=0.5;exitDx=0;exitDy=0;entryX=0;entryY=0.5;entryDx=0;entryDy=0;entryPerimeter=0;exitPerimeter=0;" parent="vcYfuEv9-DNJxLzIenWE-1" target="vcYfuEv9-DNJxLzIenWE-6" edge="1">
          <mxGeometry relative="1" as="geometry">
            <mxPoint x="620" y="320" as="sourcePoint" />
            <mxPoint x="670" y="387" as="targetPoint" />
          </mxGeometry>
        </mxCell>
        <mxCell id="vcYfuEv9-DNJxLzIenWE-10" style="edgeStyle=orthogonalEdgeStyle;rounded=0;orthogonalLoop=1;jettySize=auto;html=1;exitX=0.5;exitY=0;exitDx=0;exitDy=0;entryX=0.5;entryY=1;entryDx=0;entryDy=0;entryPerimeter=0;exitPerimeter=0;" parent="vcYfuEv9-DNJxLzIenWE-1" source="vcYfuEv9-DNJxLzIenWE-2" target="vcYfuEv9-DNJxLzIenWE-7" edge="1">
          <mxGeometry relative="1" as="geometry">
            <mxPoint x="600" y="283" as="sourcePoint" />
            <mxPoint x="650" y="350" as="targetPoint" />
          </mxGeometry>
        </mxCell>
        <mxCell id="AprAnt3GBauMQ8t7Mhns-0" value="MongoDB&lt;div&gt;shard1-2&lt;/div&gt;" style="shape=cylinder3;whiteSpace=wrap;html=1;boundedLbl=1;backgroundOutline=1;size=15;" parent="vcYfuEv9-DNJxLzIenWE-1" vertex="1">
          <mxGeometry x="760" y="100" width="60" height="80" as="geometry" />
        </mxCell>
        <mxCell id="AprAnt3GBauMQ8t7Mhns-1" value="MongoDB&lt;div&gt;shard1-3&lt;/div&gt;" style="shape=cylinder3;whiteSpace=wrap;html=1;boundedLbl=1;backgroundOutline=1;size=15;" parent="vcYfuEv9-DNJxLzIenWE-1" vertex="1">
          <mxGeometry x="760" y="210" width="60" height="80" as="geometry" />
        </mxCell>
        <mxCell id="AprAnt3GBauMQ8t7Mhns-2" value="MongoDB&lt;div&gt;shard2-2&lt;/div&gt;" style="shape=cylinder3;whiteSpace=wrap;html=1;boundedLbl=1;backgroundOutline=1;size=15;" parent="vcYfuEv9-DNJxLzIenWE-1" vertex="1">
          <mxGeometry x="760" y="334" width="60" height="80" as="geometry" />
        </mxCell>
        <mxCell id="AprAnt3GBauMQ8t7Mhns-3" value="MongoDB&lt;div&gt;shard2-3&lt;/div&gt;" style="shape=cylinder3;whiteSpace=wrap;html=1;boundedLbl=1;backgroundOutline=1;size=15;" parent="vcYfuEv9-DNJxLzIenWE-1" vertex="1">
          <mxGeometry x="760" y="470" width="60" height="80" as="geometry" />
        </mxCell>
        <mxCell id="AprAnt3GBauMQ8t7Mhns-4" value="MongoDB&lt;div&gt;configSrv2&lt;/div&gt;" style="shape=cylinder3;whiteSpace=wrap;html=1;boundedLbl=1;backgroundOutline=1;size=15;" parent="vcYfuEv9-DNJxLzIenWE-1" vertex="1">
          <mxGeometry x="500" y="60" width="60" height="80" as="geometry" />
        </mxCell>
        <mxCell id="AprAnt3GBauMQ8t7Mhns-5" value="MongoDB&lt;div&gt;configSrv3&lt;/div&gt;" style="shape=cylinder3;whiteSpace=wrap;html=1;boundedLbl=1;backgroundOutline=1;size=15;" parent="vcYfuEv9-DNJxLzIenWE-1" vertex="1">
          <mxGeometry x="620" y="60" width="60" height="80" as="geometry" />
        </mxCell>
        <mxCell id="AprAnt3GBauMQ8t7Mhns-6" value="" style="endArrow=classic;startArrow=classic;html=1;rounded=0;exitX=0.855;exitY=0;exitDx=0;exitDy=4.35;exitPerimeter=0;" parent="vcYfuEv9-DNJxLzIenWE-1" source="vcYfuEv9-DNJxLzIenWE-7" edge="1">
          <mxGeometry width="50" height="50" relative="1" as="geometry">
            <mxPoint x="600" y="190" as="sourcePoint" />
            <mxPoint x="650" y="140" as="targetPoint" />
          </mxGeometry>
        </mxCell>
        <mxCell id="AprAnt3GBauMQ8t7Mhns-7" value="" style="endArrow=classic;startArrow=classic;html=1;rounded=0;exitX=0.145;exitY=0;exitDx=0;exitDy=4.35;exitPerimeter=0;" parent="vcYfuEv9-DNJxLzIenWE-1" source="vcYfuEv9-DNJxLzIenWE-7" edge="1">
          <mxGeometry width="50" height="50" relative="1" as="geometry">
            <mxPoint x="480" y="190" as="sourcePoint" />
            <mxPoint x="530" y="140" as="targetPoint" />
          </mxGeometry>
        </mxCell>
        <mxCell id="AprAnt3GBauMQ8t7Mhns-8" value="" style="endArrow=classic;startArrow=classic;html=1;rounded=0;exitX=1;exitY=0;exitDx=0;exitDy=27.5;exitPerimeter=0;entryX=0;entryY=0.875;entryDx=0;entryDy=0;entryPerimeter=0;" parent="vcYfuEv9-DNJxLzIenWE-1" source="vcYfuEv9-DNJxLzIenWE-6" target="AprAnt3GBauMQ8t7Mhns-0" edge="1">
          <mxGeometry width="50" height="50" relative="1" as="geometry">
            <mxPoint x="740" y="210" as="sourcePoint" />
            <mxPoint x="790" y="160" as="targetPoint" />
          </mxGeometry>
        </mxCell>
        <mxCell id="AprAnt3GBauMQ8t7Mhns-9" value="" style="endArrow=classic;startArrow=classic;html=1;rounded=0;exitX=0;exitY=0;exitDx=0;exitDy=27.5;exitPerimeter=0;" parent="vcYfuEv9-DNJxLzIenWE-1" source="AprAnt3GBauMQ8t7Mhns-1" edge="1">
          <mxGeometry width="50" height="50" relative="1" as="geometry">
            <mxPoint x="690" y="270" as="sourcePoint" />
            <mxPoint x="740" y="220" as="targetPoint" />
          </mxGeometry>
        </mxCell>
        <mxCell id="AprAnt3GBauMQ8t7Mhns-10" value="" style="endArrow=classic;startArrow=classic;html=1;rounded=0;exitX=1;exitY=0;exitDx=0;exitDy=27.5;exitPerimeter=0;" parent="vcYfuEv9-DNJxLzIenWE-1" source="vcYfuEv9-DNJxLzIenWE-5" edge="1">
          <mxGeometry width="50" height="50" relative="1" as="geometry">
            <mxPoint x="710" y="450" as="sourcePoint" />
            <mxPoint x="760" y="400" as="targetPoint" />
          </mxGeometry>
        </mxCell>
        <mxCell id="AprAnt3GBauMQ8t7Mhns-11" value="" style="endArrow=classic;startArrow=classic;html=1;rounded=0;exitX=0.006;exitY=0.102;exitDx=0;exitDy=0;exitPerimeter=0;entryX=1;entryY=1;entryDx=0;entryDy=-15;entryPerimeter=0;" parent="vcYfuEv9-DNJxLzIenWE-1" source="AprAnt3GBauMQ8t7Mhns-3" target="vcYfuEv9-DNJxLzIenWE-5" edge="1">
          <mxGeometry width="50" height="50" relative="1" as="geometry">
            <mxPoint x="540" y="360" as="sourcePoint" />
            <mxPoint x="590" y="310" as="targetPoint" />
          </mxGeometry>
        </mxCell>
      </root>
    </mxGraphModel>
  </diagram>
  <diagram name="sharding" id="FwDilDK1w8w60p0kFX1-">
    <mxGraphModel dx="1050" dy="629" grid="1" gridSize="10" guides="1" tooltips="1" connect="1" arrows="1" fold="1" page="1" pageScale="1" pageWidth="1169" pageHeight="827" math="0" shadow="0">
      <root>
        <mxCell id="ijzKpzaGrRz_yyiCWMyk-0" />
        <mxCell id="ijzKpzaGrRz_yyiCWMyk-1" parent="ijzKpzaGrRz_yyiCWMyk-0" />
        <mxCell id="ijzKpzaGrRz_yyiCWMyk-2" value="MongoDB&lt;div&gt;&lt;span style=&quot;font-size: 8px;&quot;&gt;mongos_router&lt;/span&gt;&lt;br&gt;&lt;/div&gt;" style="shape=cylinder3;whiteSpace=wrap;html=1;boundedLbl=1;backgroundOutline=1;size=15;" parent="ijzKpzaGrRz_yyiCWMyk-1" vertex="1">
          <mxGeometry x="560" y="280" width="60" height="80" as="geometry" />
        </mxCell>
        <mxCell id="ijzKpzaGrRz_yyiCWMyk-3" value="pymongo-api" style="rounded=1;whiteSpace=wrap;html=1;" parent="ijzKpzaGrRz_yyiCWMyk-1" vertex="1">
          <mxGeometry x="360" y="290" width="120" height="60" as="geometry" />
        </mxCell>
        <mxCell id="ijzKpzaGrRz_yyiCWMyk-4" style="edgeStyle=orthogonalEdgeStyle;rounded=0;orthogonalLoop=1;jettySize=auto;html=1;exitX=1;exitY=0.5;exitDx=0;exitDy=0;entryX=0;entryY=0.5;entryDx=0;entryDy=0;entryPerimeter=0;" parent="ijzKpzaGrRz_yyiCWMyk-1" source="ijzKpzaGrRz_yyiCWMyk-3" target="ijzKpzaGrRz_yyiCWMyk-2" edge="1">
          <mxGeometry relative="1" as="geometry" />
        </mxCell>
        <mxCell id="Mq0hIFnsMccIRAuQQc74-0" value="MongoDB&lt;div&gt;shard2&lt;/div&gt;" style="shape=cylinder3;whiteSpace=wrap;html=1;boundedLbl=1;backgroundOutline=1;size=15;" parent="ijzKpzaGrRz_yyiCWMyk-1" vertex="1">
          <mxGeometry x="670" y="334" width="60" height="80" as="geometry" />
        </mxCell>
        <mxCell id="Mq0hIFnsMccIRAuQQc74-1" value="MongoDB&lt;div&gt;shard1&lt;/div&gt;" style="shape=cylinder3;whiteSpace=wrap;html=1;boundedLbl=1;backgroundOutline=1;size=15;" parent="ijzKpzaGrRz_yyiCWMyk-1" vertex="1">
          <mxGeometry x="670" y="220" width="60" height="80" as="geometry" />
        </mxCell>
        <mxCell id="Mq0hIFnsMccIRAuQQc74-2" value="MongoDB&lt;div&gt;configSrv&lt;/div&gt;" style="shape=cylinder3;whiteSpace=wrap;html=1;boundedLbl=1;backgroundOutline=1;size=15;" parent="ijzKpzaGrRz_yyiCWMyk-1" vertex="1">
          <mxGeometry x="560" y="160" width="60" height="80" as="geometry" />
        </mxCell>
        <mxCell id="Mq0hIFnsMccIRAuQQc74-3" style="edgeStyle=orthogonalEdgeStyle;rounded=0;orthogonalLoop=1;jettySize=auto;html=1;exitX=1;exitY=0.5;exitDx=0;exitDy=0;entryX=0;entryY=0;entryDx=0;entryDy=52.5;entryPerimeter=0;exitPerimeter=0;" parent="ijzKpzaGrRz_yyiCWMyk-1" source="ijzKpzaGrRz_yyiCWMyk-2" target="Mq0hIFnsMccIRAuQQc74-0" edge="1">
          <mxGeometry relative="1" as="geometry">
            <mxPoint x="610" y="334" as="sourcePoint" />
            <mxPoint x="690" y="334" as="targetPoint" />
          </mxGeometry>
        </mxCell>
        <mxCell id="Mq0hIFnsMccIRAuQQc74-4" style="edgeStyle=orthogonalEdgeStyle;rounded=0;orthogonalLoop=1;jettySize=auto;html=1;exitX=1;exitY=0.5;exitDx=0;exitDy=0;entryX=0;entryY=0.5;entryDx=0;entryDy=0;entryPerimeter=0;exitPerimeter=0;" parent="ijzKpzaGrRz_yyiCWMyk-1" target="Mq0hIFnsMccIRAuQQc74-1" edge="1">
          <mxGeometry relative="1" as="geometry">
            <mxPoint x="620" y="320" as="sourcePoint" />
            <mxPoint x="670" y="387" as="targetPoint" />
          </mxGeometry>
        </mxCell>
        <mxCell id="Mq0hIFnsMccIRAuQQc74-5" style="edgeStyle=orthogonalEdgeStyle;rounded=0;orthogonalLoop=1;jettySize=auto;html=1;exitX=0.5;exitY=0;exitDx=0;exitDy=0;entryX=0.5;entryY=1;entryDx=0;entryDy=0;entryPerimeter=0;exitPerimeter=0;" parent="ijzKpzaGrRz_yyiCWMyk-1" source="ijzKpzaGrRz_yyiCWMyk-2" target="Mq0hIFnsMccIRAuQQc74-2" edge="1">
          <mxGeometry relative="1" as="geometry">
            <mxPoint x="600" y="283" as="sourcePoint" />
            <mxPoint x="650" y="350" as="targetPoint" />
          </mxGeometry>
        </mxCell>
      </root>
    </mxGraphModel>
  </diagram>
  <diagram name="Page-1" id="-H_mtQnk-PTXWXPvYvuk">
    <mxGraphModel dx="1050" dy="629" grid="1" gridSize="10" guides="1" tooltips="1" connect="1" arrows="1" fold="1" page="1" pageScale="1" pageWidth="1169" pageHeight="827" math="0" shadow="0">
      <root>
        <mxCell id="0" />
        <mxCell id="1" parent="0" />
        <mxCell id="zA23MoTUsTF4_91t8viU-2" value="MongoDB" style="shape=cylinder3;whiteSpace=wrap;html=1;boundedLbl=1;backgroundOutline=1;size=15;" parent="1" vertex="1">
          <mxGeometry x="560" y="280" width="60" height="80" as="geometry" />
        </mxCell>
        <mxCell id="zA23MoTUsTF4_91t8viU-3" value="pymongo-api" style="rounded=1;whiteSpace=wrap;html=1;" parent="1" vertex="1">
          <mxGeometry x="360" y="290" width="120" height="60" as="geometry" />
        </mxCell>
        <mxCell id="zA23MoTUsTF4_91t8viU-4" style="edgeStyle=orthogonalEdgeStyle;rounded=0;orthogonalLoop=1;jettySize=auto;html=1;exitX=1;exitY=0.5;exitDx=0;exitDy=0;entryX=0;entryY=0.5;entryDx=0;entryDy=0;entryPerimeter=0;" parent="1" source="zA23MoTUsTF4_91t8viU-3" target="zA23MoTUsTF4_91t8viU-2" edge="1">
          <mxGeometry relative="1" as="geometry" />
        </mxCell>
      </root>
    </mxGraphModel>
  </diagram>
</mxfile>
